<?xml version="1.0" standalone="no"?>
<!DOCTYPE svg PUBLIC "-//W3C//DTD SVG 20010904//EN"
 "http://www.w3.org/TR/2001/REC-SVG-20010904/DTD/svg10.dtd">
<svg version="1.0" xmlns="http://www.w3.org/2000/svg"
 width="200.000000pt" height="200.000000pt" viewBox="0 0 200.000000 200.000000"
 preserveAspectRatio="xMidYMid meet">
<metadata>
Created by potrace 1.14, written by Peter Selinger 2001-2017
</metadata>
<g transform="translate(0.000000,200.000000) scale(0.100000,-0.100000)"
fill="#000000" stroke="none">
<path d="M700 1600 l-355 -259 -3 39 c-2 27 -8 40 -18 40 -10 0 -14 -14 -14
-53 l0 -53 -82 -60 c-45 -32 -86 -62 -91 -65 -6 -4 -6 -13 0 -23 8 -15 19 -10
85 39 42 30 79 55 82 55 3 0 6 -9 6 -19 0 -13 -48 -54 -154 -132 -100 -72
-152 -117 -149 -125 3 -8 9 -14 14 -14 4 0 70 46 146 101 l138 101 3 -506 c2
-441 4 -506 17 -506 13 0 15 66 15 519 l0 519 217 159 c119 87 221 161 226
164 6 4 6 13 0 23 -8 15 -40 -5 -222 -138 -117 -86 -214 -156 -217 -156 -3 0
-4 10 -2 22 2 16 99 92 348 275 190 138 348 252 353 252 4 1 7 -38 7 -86 0
-86 0 -87 -35 -119 -19 -17 -35 -41 -35 -53 0 -20 5 -21 80 -21 78 0 80 1 80
24 0 15 -12 34 -30 50 -31 25 -31 26 -28 117 l3 91 322 -234 322 -233 0 -272
c1 -266 2 -273 21 -273 19 0 20 7 20 256 0 167 3 253 10 249 6 -4 10 -205 10
-571 0 -495 2 -564 15 -564 13 0 15 68 15 550 0 303 2 550 5 550 3 0 38 -25
79 -55 62 -46 76 -52 86 -40 10 12 -5 26 -79 81 l-91 67 0 53 c0 41 -4 54 -15
54 -11 0 -15 -11 -15 -41 0 -24 -4 -38 -10 -34 -6 4 -10 98 -10 251 0 237 -1
244 -20 244 -19 0 -20 -8 -22 -229 l-3 -230 -328 240 c-180 131 -331 239 -335
239 -4 -1 -167 -118 -362 -260z m388 -37 c2 -9 -7 -13 -27 -13 -31 0 -42 14
-18 23 19 8 40 3 45 -10z"/>
<path d="M840 675 l0 -125 90 0 c92 0 120 -12 53 -24 -21 -3 -113 -6 -205 -6
-128 0 -168 -3 -167 -12 0 -7 21 -74 47 -148 l47 -135 74 -3 73 -3 -6 -40 c-6
-39 -6 -40 20 -37 20 2 29 11 38 38 l11 35 150 0 149 0 9 -38 c8 -32 13 -37
38 -37 27 0 29 2 23 28 -4 15 -7 32 -8 37 0 6 30 11 71 13 56 2 73 6 78 20 11
28 95 274 95 278 0 2 -75 4 -167 4 -93 0 -185 3 -205 6 -68 12 -40 24 52 24
l90 0 0 125 0 125 -225 0 -225 0 0 -125z m420 0 l0 -85 -95 0 -95 0 0 -35 c0
-19 -4 -35 -10 -35 -5 0 -10 16 -10 35 l0 35 -90 0 -90 0 0 85 0 85 195 0 195
0 0 -85z m-210 -240 l0 -45 -183 0 -184 0 -11 39 c-7 21 -12 41 -12 45 0 3 88
6 195 6 l195 0 0 -45z m414 23 c-23 -74 -4 -68 -204 -68 l-180 0 0 45 0 45
196 0 195 0 -7 -22z m-419 -158 l0 -45 -152 -3 -152 -3 -14 28 c-8 16 -18 38
-21 51 l-7 22 173 -2 173 -3 0 -45z m375 36 c0 -7 -7 -30 -15 -50 l-15 -36
-155 0 -155 0 0 50 0 50 170 0 c138 0 170 -3 170 -14z"/>
<path d="M1020 424 c0 -8 5 -12 10 -9 6 4 8 11 5 16 -9 14 -15 11 -15 -7z"/>
<path d="M1100 424 c0 -8 5 -12 10 -9 6 4 8 11 5 16 -9 14 -15 11 -15 -7z"/>
<path d="M1020 300 c0 -5 5 -10 10 -10 6 0 10 5 10 10 0 6 -4 10 -10 10 -5 0
-10 -4 -10 -10z"/>
<path d="M1100 300 c0 -5 5 -10 10 -10 6 0 10 5 10 10 0 6 -4 10 -10 10 -5 0
-10 -4 -10 -10z"/>
</g>
</svg>
